<svg width="58" height="51" viewBox="0 0 58 51" fill="none" xmlns="http://www.w3.org/2000/svg">
<path d="M27.9908 0.592867C28.3801 -0.197621 29.6199 -0.197623 30.0092 0.592865L37.5927 15.9901C37.7533 16.3161 38.0937 16.54 38.486 16.5774L57.0096 18.3468C57.9606 18.4377 58.3437 19.5048 57.6334 20.0842L43.7965 31.3696C43.5036 31.6086 43.3735 31.9707 43.4554 32.3199L47.3201 48.8107C47.5185 49.6573 46.5155 50.3169 45.6872 49.8844L29.552 41.462C29.2104 41.2836 28.7896 41.2836 28.448 41.462L12.3128 49.8844C11.4845 50.3168 10.4815 49.6573 10.6799 48.8107L14.5446 32.3199C14.6265 31.9707 14.4964 31.6086 14.2035 31.3696L0.366648 20.0842C-0.343728 19.5048 0.0393738 18.4377 0.990372 18.3468L19.514 16.5774C19.9063 16.54 20.2467 16.3161 20.4073 15.9901L27.9908 0.592867Z" fill="#4169E1"/>
</svg>
