<svg width="58" height="51" viewBox="0 0 58 51" fill="none" xmlns="http://www.w3.org/2000/svg">
<path fill-rule="evenodd" clip-rule="evenodd" d="M20.4073 16.9692C20.2467 17.2952 19.9063 17.519 19.514 17.5565L0.990372 19.3259C0.0393739 19.4167 -0.343728 20.4839 0.366648 21.0632L14.2035 32.3487C14.4964 32.5876 14.6265 32.9498 14.5446 33.299L10.6799 49.7898C10.4815 50.6364 11.4845 51.2959 12.3128 50.8635L28.448 42.441C28.7896 42.2627 29.2104 42.2627 29.5521 42.441L45.6872 50.8635C46.5155 51.2959 47.5185 50.6364 47.3201 49.7898L43.4554 33.299C43.3735 32.9498 43.5036 32.5876 43.7965 32.3486L57.6334 21.0632C58.3437 20.4838 57.9606 19.4167 57.0096 19.3259L38.486 17.5565C38.0937 17.519 37.7533 17.2952 37.5927 16.9692L30.0092 1.57193C29.6199 0.781442 28.3801 0.781444 27.9908 1.57193L20.4073 16.9692ZM29 6.89145L23.4349 18.1906C22.7926 19.4947 21.4309 20.3901 19.862 20.5399L6.26854 21.8384L16.4226 30.1201C17.5945 31.076 18.1146 32.5247 17.7873 33.9215L14.9512 46.0231L26.7918 39.8423C28.1584 39.1289 29.8416 39.1289 31.2082 39.8423L43.0488 46.0231L40.2127 33.9214C39.8854 32.5247 40.4055 31.0759 41.5774 30.1201L51.7315 21.8384L38.138 20.5399C36.5691 20.3901 35.2074 19.4947 34.5651 18.1906L29 6.89145Z" fill="#4169E1"/>
</svg>
