<svg width="22" height="20" viewBox="0 0 22 20" fill="none" xmlns="http://www.w3.org/2000/svg">
<path d="M10.0489 0.927068C10.3483 0.00575751 11.6517 0.00575513 11.9511 0.927066L13.6942 6.29181C13.828 6.70383 14.212 6.98279 14.6452 6.98279H20.2861C21.2548 6.98279 21.6576 8.22241 20.8738 8.79181L16.3103 12.1074C15.9598 12.3621 15.8132 12.8134 15.947 13.2254L17.6902 18.5902C17.9895 19.5115 16.935 20.2776 16.1513 19.7082L11.5878 16.3926C11.2373 16.138 10.7627 16.138 10.4122 16.3926L5.84869 19.7082C5.06498 20.2776 4.0105 19.5115 4.30985 18.5902L6.05296 13.2254C6.18684 12.8134 6.04018 12.3621 5.68969 12.1074L1.12617 8.79181C0.342454 8.22241 0.745229 6.98279 1.71395 6.98279H7.35478C7.788 6.98279 8.17196 6.70383 8.30584 6.29181L10.0489 0.927068Z" fill="#4169E1"/>
</svg>
