<svg width="22" height="20" viewBox="0 0 22 20" fill="none" xmlns="http://www.w3.org/2000/svg">
<path fill-rule="evenodd" clip-rule="evenodd" d="M11 4.47215L10.2079 6.90985C9.80632 8.14592 8.65445 8.98279 7.35478 8.98279H4.79164L6.86526 10.4894C7.91673 11.2533 8.3567 12.6074 7.95508 13.8435L7.16302 16.2812L9.23665 14.7746C10.2881 14.0107 11.7119 14.0107 12.7634 14.7746L14.837 16.2812L14.0449 13.8435C13.6433 12.6074 14.0833 11.2533 15.1347 10.4894L17.2084 8.98279H14.6452C13.3455 8.98279 12.1937 8.14591 11.7921 6.90984L11 4.47215ZM11.9511 0.927066C11.6517 0.00575513 10.3483 0.00575751 10.0489 0.927068L8.30584 6.29181C8.17196 6.70383 7.788 6.98279 7.35478 6.98279H1.71395C0.745229 6.98279 0.342454 8.22241 1.12617 8.79181L5.68969 12.1074C6.04018 12.3621 6.18684 12.8134 6.05296 13.2254L4.30985 18.5902C4.0105 19.5115 5.06498 20.2776 5.84869 19.7082L10.4122 16.3926C10.7627 16.138 11.2373 16.138 11.5878 16.3926L16.1513 19.7082C16.935 20.2776 17.9895 19.5115 17.6902 18.5902L15.947 13.2254C15.8132 12.8134 15.9598 12.3621 16.3103 12.1074L20.8738 8.79181C21.6576 8.22241 21.2548 6.98279 20.2861 6.98279H14.6452C14.212 6.98279 13.828 6.70383 13.6942 6.29181L11.9511 0.927066Z" fill="#4169E1"/>
</svg>
